<svg id="wingardh-logo" class="anim-blast-apart" version="1.1" id="Layer_1" xmlns="http://www.w3.org/2000/svg" xmlns:xlink="http://www.w3.org/1999/xlink" x="0px" y="0px"
     width="100%" viewBox="0 0 1000 348" enable-background="new 0 0 1000 348" xml:space="preserve">

  <!-- whole logo -->
  <g>
    
    <!-- left bar -->
    <rect x="0" width="43" height="348" id="wingardh-logo-1" class="bar-piece anim-blast-apart-1"/>
    <rect x="43" width="44" height="348" id="wingardh-logo-1b" class="bar-piece anim-blast-apart-fade-1"/>

    <!-- left box -->
    <g id="wingardh-logo-box-1">
      <polygon points="87,0     87,348  304,0   87,0" id="wingardh-logo-2" class="top-piece anim-blast-apart-2"/>
      <polygon points="304,348  304,0   87,348  304,348" id="wingardh-logo-3" class="bottom-piece anim-blast-apart-3"/>
      <rect x="304" width="87" height="348" id="wingardh-logo-3b" class="bar-piece anim-blast-apart-fade-3"/>
    </g>
      
    <!-- middle box -->
    <g id="wingardh-logo-box-1">
      <polygon points="500,0    391,174  391,0" id="wingardh-logo-4" class="top-piece anim-blast-apart-4"/>
      <polygon points="500,0    391,174  391,348, 609,0" id="wingardh-logo-4b" class="top-piece anim-blast-apart-fade-4"/>
      <polygon points="609,348  609,0    391,348, 609,348" id="wingardh-logo-5" class="bottom-piece anim-blast-apart-5"/>
      <rect x="609" width="87" height="348" id="wingardh-logo-5b" class="bar-piece anim-blast-apart-fade-5"/>
    </g>

    <!-- right box -->
    <g id="wingardh-logo-box-1">
      <polygon points="804,0    696,174  696,0" id="wingardh-logo-6" class="top-piece anim-blast-apart-6"/>
      <polygon points="804,0    696,174  695,348 913,0" id="wingardh-logo-6b" class="top-piece anim-blast-apart-fade-6"/>
      <polygon points="913,348  913,0    696,348 913,348" id="wingardh-logo-7" class="bottom-piece anim-blast-apart-7"/>    
    </g>

    <!-- right bar -->
    <rect x="913" width="44" height="348" id="wingardh-logo-8b" class="bar-piece anim-blast-apart-fade-7"/>
    <rect x="956" width="43" height="348" id="wingardh-logo-8" class="bar-piece anim-blast-apart-8"/>

  </g>
</svg>
